<svg xmlns="http://www.w3.org/2000/svg" width="303" height="45" viewBox="0 0 303 45" fill="none"><path d="M38.7821 15.9874L27.9351 18.8915V5.54021C32.906 7.25249 36.8812 11.107 38.7821 15.9949M5.45671 28.9238L16.3037 26.0197V39.3785C11.3328 37.6662 7.35757 33.8117 5.45671 28.9313M39.9663 23.6964C39.4609 30.9906 34.5806 37.0854 27.9351 39.3785V22.9119L43.5795 18.718C41.9049 9.10055 33.9168 1.64044 24.058 0.765442V19.9324L20.1808 20.9734V0.765442C9.13773 1.74604 0.433016 11.0014 0.342499 22.2783L4.27245 21.2223C4.77783 13.9281 9.65821 7.83331 16.3037 5.54021V22.0068L0.666851 26.2007C2.34142 35.8106 10.322 43.2783 20.1808 44.1533V24.9863L24.058 23.9453V44.1533C35.1086 43.1727 43.8058 33.9173 43.8963 22.6404L39.9663 23.6964Z" fill="#EBB043"></path><path d="M228.45 11.4894H233.885V36.8782H237.866V11.4894H243.301V8.02692H228.45V11.4894V11.4894ZM216.053 12.0614C216.437 11.6926 216.866 11.4216 217.333 11.256C217.807 11.0904 218.296 11.0076 218.778 11.0076C220.426 11.0076 221.759 11.6625 222.737 12.9496L222.873 13.1303L225.289 10.27L225.198 10.1571C224.461 9.22373 223.52 8.51618 222.413 8.04951C221.307 7.59035 220.05 7.34949 218.665 7.34949C217.709 7.34949 216.753 7.51508 215.827 7.84628C214.894 8.17747 214.051 8.68931 213.328 9.37427C212.598 10.0592 212.011 10.9324 211.574 11.9711C211.138 13.0098 210.912 14.2368 210.912 15.6217C210.912 16.7884 211.07 17.8197 211.386 18.6853C211.702 19.5434 212.139 20.3036 212.688 20.9359C213.23 21.5606 213.855 22.1176 214.555 22.5993C215.248 23.0736 215.993 23.5026 216.768 23.8789C217.4 24.1951 218.003 24.5413 218.544 24.8951C219.079 25.2489 219.561 25.6478 219.982 26.0769C220.396 26.5059 220.72 26.9876 220.953 27.5145C221.186 28.0414 221.299 28.6586 221.299 29.3511C221.299 30.8264 220.923 31.963 220.185 32.7233C219.448 33.491 218.492 33.8749 217.34 33.8749C216.429 33.8749 215.519 33.6491 214.623 33.2125C213.727 32.7684 212.967 32.1512 212.372 31.3759L212.237 31.1953L209.866 34.1007L209.956 34.2136C210.746 35.2223 211.815 36.0502 213.14 36.6599C214.457 37.2696 215.872 37.5782 217.34 37.5782C218.432 37.5782 219.47 37.3825 220.426 36.9986C221.382 36.6148 222.225 36.0578 222.925 35.3502C223.625 34.6351 224.182 33.7469 224.596 32.6932C225.003 31.6469 225.213 30.4501 225.213 29.1479C225.213 27.9737 225.025 26.9349 224.656 26.0392C224.288 25.151 223.798 24.3682 223.196 23.7134C222.602 23.0585 221.924 22.4864 221.186 22.0122C220.464 21.5456 219.711 21.109 218.958 20.7326C218.379 20.4466 217.829 20.1305 217.325 19.7993C216.828 19.4756 216.384 19.0993 216.008 18.7003C215.631 18.3014 215.33 17.8422 215.12 17.3454C214.901 16.8487 214.796 16.2465 214.796 15.5465C214.796 14.7411 214.916 14.0486 215.142 13.4841C215.376 12.9195 215.684 12.4453 216.068 12.0765M193.999 26.9952L197.469 12.0614L200.826 26.9952H193.999ZM200.073 8.04198H195L187.744 36.8933H191.778L193.427 30.2167H201.39L203.001 36.8933H207.156L200.096 8.17747L200.065 8.04198H200.073ZM271.656 20.9961H268.494V11.4216H271.573C272.115 11.4216 272.672 11.4969 273.214 11.6399C273.748 11.7829 274.222 12.0313 274.629 12.3851C275.035 12.7464 275.374 13.2206 275.63 13.8152C275.886 14.4099 276.014 15.1852 276.014 16.1261C276.014 17.6842 275.615 18.9036 274.817 19.7391C274.027 20.5746 272.958 20.9961 271.648 20.9961M276.736 22.78C277.316 22.4187 277.858 21.9294 278.347 21.3122C278.829 20.695 279.228 19.9423 279.536 19.0691C279.837 18.196 279.996 17.1573 279.996 15.9906C279.996 14.5755 279.785 13.3486 279.378 12.3399C278.964 11.3238 278.392 10.4883 277.677 9.856C276.962 9.22373 276.119 8.75705 275.171 8.47102C274.23 8.18499 273.214 8.04198 272.152 8.04198H264.588V36.8933H268.487V24.18H271.482L276.27 36.7804L276.315 36.8933H280.613L275.238 23.4424C275.728 23.3144 276.232 23.0961 276.744 22.78M251.046 23.608H258.972V20.2283H251.046V11.6173H259.537V8.03445H247.185V36.8857H259.943V33.2652H251.046V23.608V23.608ZM298.482 8.03445V29.72L289.69 8.03445H285.039V36.8857H288.742V15.2303L297.609 36.7728L297.654 36.8857H302.185V8.02692H298.482V8.03445ZM175.58 23.608H183.506V20.2283H175.58V11.6173H184.07V8.03445H171.719V36.8857H184.477V33.2652H175.58V23.608ZM87.912 29.72L79.1204 8.03445H74.4687V36.8857H78.172V15.2303L87.0389 36.7728L87.084 36.8857H91.6153V8.02692H87.912V29.7124V29.72ZM106.993 24.3757H110.734V32.919C109.996 33.4986 108.905 33.7921 107.497 33.7921C106.414 33.7921 105.458 33.5061 104.667 32.9415C103.862 32.3695 103.184 31.5716 102.65 30.5705C102.108 29.5619 101.694 28.3425 101.423 26.9575C101.145 25.565 101.002 24.037 101.002 22.4262C101.002 20.8154 101.13 19.4003 101.378 18.0154C101.626 16.6304 102.025 15.3959 102.545 14.3647C103.064 13.3335 103.719 12.5131 104.487 11.9109C105.239 11.3238 106.158 11.0227 107.211 11.0227C108.092 11.0227 108.913 11.2335 109.658 11.6399C110.41 12.0539 111.08 12.6862 111.652 13.5142L111.78 13.7023L114.287 10.9775L114.204 10.8571C113.414 9.68288 112.398 8.79469 111.193 8.22263C109.996 7.65057 108.596 7.35701 107.053 7.35701C105.51 7.35701 103.982 7.74842 102.718 8.50866C101.453 9.26889 100.369 10.3377 99.5037 11.6851C98.6381 13.0249 97.9682 14.6282 97.509 16.4497C97.0499 18.2638 96.8165 20.2735 96.8165 22.4262C96.8165 24.579 97.0574 26.7167 97.5241 28.5457C97.9983 30.3823 98.6983 31.9706 99.6016 33.2727C100.512 34.5749 101.634 35.6061 102.944 36.3287C104.253 37.0513 105.759 37.4202 107.415 37.4202C109.071 37.4202 110.433 37.2094 111.562 36.7879C112.691 36.3664 113.692 35.7943 114.535 35.0868L114.603 35.0341V20.8832H107.001V24.3833L106.993 24.3757ZM124.373 8.04198H120.391V36.8933H132.42V33.1523H124.373V8.02692V8.04198ZM159.668 24.8876H166.389V21.7488H159.668V24.8876ZM149.958 26.9425C149.709 28.3425 149.333 29.5694 148.844 30.6006C148.362 31.6168 147.752 32.4297 147.045 33.0168C146.345 33.5889 145.524 33.8824 144.606 33.8824C143.688 33.8824 142.815 33.5889 142.099 33.0168C141.369 32.4297 140.76 31.6243 140.278 30.6082C139.789 29.5845 139.42 28.35 139.186 26.9575C138.946 25.55 138.825 24.0295 138.825 22.4413C138.825 20.8531 138.946 19.3326 139.186 17.925C139.427 16.525 139.789 15.2981 140.278 14.2669C140.76 13.2507 141.369 12.4378 142.099 11.8582C142.815 11.2861 143.658 10.9926 144.606 10.9926C145.554 10.9926 146.345 11.2861 147.045 11.8582C147.76 12.4453 148.362 13.2582 148.844 14.2669C149.333 15.2981 149.702 16.525 149.958 17.925C150.214 19.3326 150.334 20.8531 150.334 22.4413C150.334 24.0295 150.206 25.55 149.958 26.9575M151.9 11.5421C151.042 10.2248 149.995 9.19362 148.783 8.47102C147.564 7.74842 146.157 7.3796 144.606 7.3796C143.055 7.3796 141.595 7.74842 140.353 8.47102C139.111 9.19362 138.057 10.2248 137.214 11.5496C136.371 12.8668 135.732 14.4701 135.302 16.3142C134.873 18.1584 134.655 20.2208 134.655 22.4488C134.655 24.6768 134.881 26.7468 135.325 28.5909C135.769 30.4426 136.432 32.0458 137.282 33.3706C138.14 34.7029 139.194 35.7492 140.421 36.4868C141.655 37.2245 143.063 37.6008 144.621 37.6008C146.179 37.6008 147.579 37.2245 148.799 36.4868C150.01 35.7492 151.057 34.7029 151.915 33.3706C152.765 32.0458 153.428 30.435 153.872 28.5909C154.316 26.7543 154.542 24.6843 154.542 22.4488C154.542 20.2133 154.316 18.1508 153.872 16.3067C153.428 14.455 152.765 12.8518 151.915 11.5421M57.3069 27.0102L60.7769 12.0765L64.134 27.0102H57.3069ZM63.3813 8.05703H58.308L51.0519 36.9083H55.0864L56.7349 30.2318H64.6985L66.3093 36.9083H70.4642L63.4038 8.19252L63.3737 8.05703H63.3813Z" fill="white"></path></svg>